<svg width="10" height="5" viewBox="0 0 10 5" fill="none" xmlns="http://www.w3.org/2000/svg">
<g clip-path="url(#clip0)">
<path d="M4.62075 0.141327L0.141093 4.24925C0.0720497 4.31289 0.0261314 4.39248 0.008979 4.47824C-0.00817336 4.564 0.00418721 4.6522 0.0445423 4.732C0.0848974 4.81181 0.151489 4.87974 0.236138 4.92746C0.320787 4.97518 0.419805 5.0006 0.52103 5.00061H9.47883C9.58023 5.00094 9.6795 4.97568 9.76436 4.92796C9.84922 4.88025 9.91592 4.81218 9.95621 4.73219C9.9965 4.6522 10.0086 4.56381 9.99101 4.47796C9.97343 4.39212 9.92692 4.3126 9.85727 4.24925L5.37912 0.141327C5.33029 0.0970665 5.27149 0.0618183 5.20629 0.0377307C5.1411 0.0136431 5.07089 0.0012207 4.99993 0.0012207C4.92897 0.0012207 4.85876 0.0136431 4.79357 0.0377307C4.72838 0.0618183 4.66957 0.0970665 4.62075 0.141327L0.141093 4.24925C0.0720497 4.31289 0.0261314 4.39248 0.008979 4.47824C-0.00817336 4.564 0.00418721 4.6522 0.0445423 4.732C0.0848974 4.81181 0.151489 4.87974 0.236138 4.92746C0.320787 4.97518 0.419805 5.0006 0.52103 5.00061H9.47883C9.58023 5.00094 9.6795 4.97568 9.76436 4.92796C9.84922 4.88025 9.91592 4.81218 9.95621 4.73219C9.9965 4.6522 10.0086 4.56381 9.99101 4.47796C9.97343 4.39212 9.92692 4.3126 9.85727 4.24925L5.37912 0.141327C5.33029 0.0970665 5.27149 0.0618183 5.20629 0.0377307C5.1411 0.0136431 5.07089 0.0012207 4.99993 0.0012207C4.92897 0.0012207 4.85876 0.0136431 4.79357 0.0377307C4.72838 0.0618183 4.66957 0.0970665 4.62075 0.141327V0.141327Z" fill="black"/>
</g>
<defs>
<clipPath id="clip0">
<rect width="10" height="5" fill="white"/>
</clipPath>
</defs>
</svg>
