<svg width="16" height="17" viewBox="0 0 16 17" fill="none" xmlns="http://www.w3.org/2000/svg">
<mask id="path-1-inside-1" fill="white">
<path d="M15.6813 15.2047L11.3355 10.8667C11.1416 10.6762 10.8831 10.5653 10.6112 10.5558C11.5383 9.36835 11.9774 7.87296 11.8393 6.3738C11.7011 4.87464 10.9961 3.48428 9.86765 2.48549C8.73915 1.48669 7.27189 0.954472 5.76428 0.997062C4.25667 1.03965 2.82192 1.65385 1.75181 2.71476C0.681711 3.77566 0.0566178 5.20359 0.00366123 6.70815C-0.0492953 8.21271 0.473862 9.68092 1.46674 10.8142C2.45961 11.9474 3.84764 12.6606 5.34854 12.8087C6.84944 12.9568 8.3505 12.5287 9.54644 11.6114C9.54561 11.755 9.57335 11.8973 9.62806 12.0301C9.68277 12.1629 9.76335 12.2836 9.86514 12.385L14.1675 16.6797C14.3683 16.881 14.6409 16.9945 14.9255 16.9952C15.2101 16.9958 15.4833 16.8836 15.685 16.6833C15.8867 16.4829 16.0004 16.2107 16.001 15.9267C16.0017 15.6426 15.8893 15.3699 15.6886 15.1686L15.6813 15.2047ZM9.20601 10.2522C8.55735 10.8984 7.73135 11.3382 6.83239 11.516C5.93343 11.6937 5.00184 11.6016 4.15534 11.2511C3.30884 10.9006 2.58541 10.3075 2.07645 9.54676C1.5675 8.78602 1.29586 7.89177 1.29586 6.97699C1.29586 6.06221 1.5675 5.16795 2.07645 4.40721C2.58541 3.64647 3.30884 3.05339 4.15534 2.7029C5.00184 2.3524 5.93343 2.26023 6.83239 2.43802C7.73135 2.61581 8.55735 3.0556 9.20601 3.7018C9.63745 4.13159 9.97973 4.6421 10.2133 5.2041C10.4468 5.7661 10.567 6.36856 10.567 6.97699C10.567 7.58542 10.4468 8.18788 10.2133 8.74988C9.97973 9.31188 9.63745 9.82238 9.20601 10.2522Z"/>
</mask>
<path d="M15.6813 15.2047L11.3355 10.8667C11.1416 10.6762 10.8831 10.5653 10.6112 10.5558C11.5383 9.36835 11.9774 7.87296 11.8393 6.3738C11.7011 4.87464 10.9961 3.48428 9.86765 2.48549C8.73915 1.48669 7.27189 0.954472 5.76428 0.997062C4.25667 1.03965 2.82192 1.65385 1.75181 2.71476C0.681711 3.77566 0.0566178 5.20359 0.00366123 6.70815C-0.0492953 8.21271 0.473862 9.68092 1.46674 10.8142C2.45961 11.9474 3.84764 12.6606 5.34854 12.8087C6.84944 12.9568 8.3505 12.5287 9.54644 11.6114C9.54561 11.755 9.57335 11.8973 9.62806 12.0301C9.68277 12.1629 9.76335 12.2836 9.86514 12.385L14.1675 16.6797C14.3683 16.881 14.6409 16.9945 14.9255 16.9952C15.2101 16.9958 15.4833 16.8836 15.685 16.6833C15.8867 16.4829 16.0004 16.2107 16.001 15.9267C16.0017 15.6426 15.8893 15.3699 15.6886 15.1686L15.6813 15.2047ZM9.20601 10.2522C8.55735 10.8984 7.73135 11.3382 6.83239 11.516C5.93343 11.6937 5.00184 11.6016 4.15534 11.2511C3.30884 10.9006 2.58541 10.3075 2.07645 9.54676C1.5675 8.78602 1.29586 7.89177 1.29586 6.97699C1.29586 6.06221 1.5675 5.16795 2.07645 4.40721C2.58541 3.64647 3.30884 3.05339 4.15534 2.7029C5.00184 2.3524 5.93343 2.26023 6.83239 2.43802C7.73135 2.61581 8.55735 3.0556 9.20601 3.7018C9.63745 4.13159 9.97973 4.6421 10.2133 5.2041C10.4468 5.7661 10.567 6.36856 10.567 6.97699C10.567 7.58542 10.4468 8.18788 10.2133 8.74988C9.97973 9.31188 9.63745 9.82238 9.20601 10.2522Z" fill="white"/>
<path d="M15.6813 15.2047L8.61667 22.2822L21.821 35.4627L25.4865 17.1694L15.6813 15.2047ZM11.3355 10.8667L18.4002 3.78927L18.3719 3.76107L18.3434 3.7331L11.3355 10.8667ZM10.6112 10.5558L2.72884 4.40208L-9.34602 19.8687L10.2641 20.5498L10.6112 10.5558ZM9.54644 11.6114L19.5463 11.6692L19.6643 -8.75156L3.46051 3.67659L9.54644 11.6114ZM9.86514 12.385L16.9298 5.30757L16.9252 5.30301L9.86514 12.385ZM14.1675 16.6797L21.2491 9.61907L21.2406 9.61062L21.2322 9.60219L14.1675 16.6797ZM9.20601 10.2522L2.14842 3.16767L2.14842 3.16767L9.20601 10.2522ZM9.20601 3.7018L2.14842 10.7863L2.14842 10.7863L9.20601 3.7018ZM22.746 8.12727L18.4002 3.78927L4.27082 17.9442L8.61667 22.2822L22.746 8.12727ZM18.3434 3.7331C16.3633 1.7879 13.7276 0.658049 10.9583 0.561866L10.2641 20.5498C8.03858 20.4725 5.91978 19.5645 4.32753 18.0004L18.3434 3.7331ZM18.4935 16.7096C20.9862 13.5167 22.169 9.49277 21.7971 5.45638L1.88144 7.29122C1.7858 6.25316 2.0903 5.21998 2.72884 4.40208L18.4935 16.7096ZM21.7971 5.45638C21.4252 1.42013 19.5274 -2.31918 16.4953 -5.00282L3.24003 9.97379C2.46489 9.28774 1.97706 8.32915 1.88144 7.29122L21.7971 5.45638ZM16.4953 -5.00282C13.4637 -7.68598 9.52543 -9.11318 5.4819 -8.99895L6.04667 10.9931C5.01835 11.0221 4.01464 10.6594 3.24003 9.97379L16.4953 -5.00282ZM5.4819 -8.99895C1.43832 -8.88472 -2.41331 -7.23741 -5.28866 -4.38677L8.79229 9.81629C8.05714 10.5451 7.07502 10.964 6.04667 10.9931L5.4819 -8.99895ZM-5.28866 -4.38677C-8.16453 -1.53563 -9.84757 2.30546 -9.99015 6.3564L9.99747 7.05991C9.9608 8.10173 9.52795 9.08695 8.79229 9.81629L-5.28866 -4.38677ZM-9.99015 6.3564C-10.1327 10.4074 -8.72386 14.3576 -6.05482 17.404L8.98829 4.22431C9.67159 5.00422 10.0341 6.01804 9.99747 7.05991L-9.99015 6.3564ZM-6.05482 17.404C-3.38625 20.4499 0.340817 22.3632 4.36658 22.7604L6.33051 2.85705C7.35447 2.95808 8.30548 3.44496 8.98829 4.22431L-6.05482 17.404ZM4.36658 22.7604C8.3922 23.1576 12.4204 22.0098 15.6324 19.5462L3.46051 3.67659C4.28057 3.04762 5.30669 2.75602 6.33051 2.85705L4.36658 22.7604ZM-0.453393 11.5536C-0.461891 13.0237 -0.177815 14.4805 0.381915 15.8392L18.8742 8.22109C19.3245 9.31419 19.5531 10.4863 19.5463 11.6692L-0.453393 11.5536ZM0.381915 15.8392C0.941625 17.1978 1.76557 18.4308 2.80504 19.4671L16.9252 5.30301C17.7611 6.13632 18.4239 7.12804 18.8742 8.22109L0.381915 15.8392ZM2.80047 19.4625L7.10286 23.7571L21.2322 9.60219L16.9298 5.30757L2.80047 19.4625ZM7.08599 23.7402C9.15904 25.8194 11.9708 26.9882 14.9017 26.9951L14.9493 6.99519C17.3111 7.00082 19.5775 7.94255 21.2491 9.61907L7.08599 23.7402ZM14.9017 26.9951C17.8326 27.0021 20.6498 25.8468 22.7327 23.7776L8.63721 9.58897C10.3167 7.92049 12.5876 6.98956 14.9493 6.99519L14.9017 26.9951ZM22.7327 23.7776C24.8162 21.7077 25.994 18.8926 26.001 15.9506L6.00107 15.9028C6.00675 13.5288 6.95709 11.2581 8.63721 9.58897L22.7327 23.7776ZM26.001 15.9506C26.008 13.0085 24.8438 10.1878 22.7701 8.108L8.60704 22.2292C6.93489 20.552 5.9954 18.2767 6.00107 15.9028L26.001 15.9506ZM5.88347 13.2039L5.87623 13.2401L25.4865 17.1694L25.4937 17.1332L5.88347 13.2039ZM2.14842 3.16767C2.90023 2.41871 3.85538 1.91104 4.89221 1.70597L8.77257 21.3259C11.6073 20.7653 14.2145 19.378 16.2636 17.3367L2.14842 3.16767ZM4.89221 1.70597C5.92895 1.50093 7.00351 1.60707 7.98088 2.01175L0.329805 20.4904C3.00017 21.5961 5.9379 21.8866 8.77257 21.3259L4.89221 1.70597ZM7.98088 2.01175C8.95842 2.4165 9.79675 3.10261 10.3879 3.98619L-6.23499 15.1073C-4.62594 17.5124 -2.34074 19.3847 0.329805 20.4904L7.98088 2.01175ZM10.3879 3.98619C10.9792 4.86997 11.2959 5.91078 11.2959 6.97699H-8.70414C-8.70414 9.87276 -7.84417 12.7021 -6.23499 15.1073L10.3879 3.98619ZM11.2959 6.97699C11.2959 8.0432 10.9792 9.084 10.3879 9.96779L-6.23499 -1.15336C-7.84417 1.2519 -8.70414 4.08122 -8.70414 6.97699H11.2959ZM10.3879 9.96779C9.79675 10.8514 8.95842 11.5375 7.98088 11.9422L0.329805 -6.53644C-2.34074 -5.4307 -4.62594 -3.55842 -6.23499 -1.15336L10.3879 9.96779ZM7.98088 11.9422C7.00351 12.3469 5.92895 12.453 4.89221 12.248L8.77257 -7.37196C5.93791 -7.93259 3.00017 -7.6421 0.329805 -6.53644L7.98088 11.9422ZM4.89221 12.248C3.85538 12.0429 2.90023 11.5353 2.14842 10.7863L16.2636 -3.38271C14.2145 -5.42407 11.6073 -6.81131 8.77257 -7.37196L4.89221 12.248ZM2.14842 10.7863C1.64829 10.2881 1.25055 9.69532 0.978844 9.04146L19.4477 1.36674C18.7089 -0.411118 17.6266 -2.0249 16.2636 -3.38272L2.14842 10.7863ZM0.978844 9.04146C0.707119 8.38757 0.567019 7.68598 0.567019 6.97699H20.567C20.567 5.05114 20.1865 3.14463 19.4477 1.36674L0.978844 9.04146ZM0.567019 6.97699C0.567019 6.268 0.70712 5.5664 0.978844 4.91251L19.4477 12.5872C20.1865 10.8093 20.567 8.90284 20.567 6.97699H0.567019ZM0.978844 4.91251C1.25055 4.25866 1.64829 3.66589 2.14842 3.16767L16.2636 17.3367C17.6266 15.9789 18.7089 14.3651 19.4477 12.5872L0.978844 4.91251Z" fill="white" mask="url(#path-1-inside-1)"/>
</svg>
